# xmcd
# 
# Track frame offsets:
#     225
#     35941
#     63510
#     78775
#     111042
#     141429
#     164575
#     194139
#     226813
# 
# Disc length: 3488
# 
# Revision: 2
# Processed by: cddbd v1.5.2PL0 Copyright (c) Steve Scherf et al.
# Submitted via: BonkEnc v1.0.8
# 
DISCID=820d9d09
DTITLE=Hein Vandegeyn, John Abercrombie, Joe LaBarbera - Baseline
DYEAR=1994
DGENRE=Contemporary Jazz
TTITLE0=Beautiful Love
TTITLE1=I Fall In Love Too Easily
TTITLE2=Peace
TTITLE3=In Your Own Sweet Way
TTITLE4=Lover Man
TTITLE5=My Romance
TTITLE6=Sweet And Lovely
TTITLE7=My Funny Valentine
TTITLE8=Sonnymoon For Two
EXTD=YEAR: 1994
EXTT0=
EXTT1=
EXTT2=
EXTT3=
EXTT4=
EXTT5=
EXTT6=
EXTT7=
EXTT8=
PLAYORDER=
